<mxfile host="Electron" agent="Mozilla/5.0 (Windows NT 10.0; Win64; x64) AppleWebKit/537.36 (KHTML, like Gecko) draw.io/28.1.2 Chrome/138.0.7204.243 Electron/37.4.0 Safari/537.36" version="28.1.2">
  <diagram name="Page-1" id="qAZH1JZBrDx5em4nwN_B">
    <mxGraphModel dx="1042" dy="1726" grid="1" gridSize="10" guides="1" tooltips="1" connect="1" arrows="1" fold="1" page="1" pageScale="1" pageWidth="850" pageHeight="1100" math="0" shadow="0">
      <root>
        <mxCell id="0" />
        <mxCell id="1" parent="0" />
        <mxCell id="79e4e_LaG82PzGOY9S52-1" value="&lt;font style=&quot;font-size: 20px;&quot;&gt;crm_cust_info&lt;/font&gt;&amp;nbsp;&lt;span style=&quot;white-space: pre;&quot;&gt;&#x9;&lt;/span&gt;" style="swimlane;fontStyle=0;childLayout=stackLayout;horizontal=1;startSize=26;fillColor=#1ba1e2;horizontalStack=0;resizeParent=1;resizeParentMax=0;resizeLast=0;collapsible=1;marginBottom=0;html=1;fontColor=#ffffff;strokeColor=#006EAF;" parent="1" vertex="1">
          <mxGeometry x="360" y="149" width="220" height="78" as="geometry" />
        </mxCell>
        <mxCell id="79e4e_LaG82PzGOY9S52-2" value="cst_id" style="text;strokeColor=none;fillColor=none;align=left;verticalAlign=top;spacingLeft=4;spacingRight=4;overflow=hidden;rotatable=0;points=[[0,0.5],[1,0.5]];portConstraint=eastwest;whiteSpace=wrap;html=1;" parent="79e4e_LaG82PzGOY9S52-1" vertex="1">
          <mxGeometry y="26" width="220" height="26" as="geometry" />
        </mxCell>
        <mxCell id="79e4e_LaG82PzGOY9S52-16" value="cst_key&lt;div&gt;&lt;br&gt;&lt;/div&gt;" style="text;strokeColor=none;fillColor=none;align=left;verticalAlign=top;spacingLeft=4;spacingRight=4;overflow=hidden;rotatable=0;points=[[0,0.5],[1,0.5]];portConstraint=eastwest;whiteSpace=wrap;html=1;" parent="79e4e_LaG82PzGOY9S52-1" vertex="1">
          <mxGeometry y="52" width="220" height="26" as="geometry" />
        </mxCell>
        <mxCell id="79e4e_LaG82PzGOY9S52-5" value="customer_information" style="text;html=1;align=center;verticalAlign=middle;whiteSpace=wrap;rounded=0;" parent="1" vertex="1">
          <mxGeometry x="417.5" y="119" width="105" height="30" as="geometry" />
        </mxCell>
        <mxCell id="79e4e_LaG82PzGOY9S52-6" value="&lt;span style=&quot;font-size: 20px;&quot;&gt;crm_prd_info&lt;/span&gt;" style="swimlane;fontStyle=0;childLayout=stackLayout;horizontal=1;startSize=26;fillColor=#1ba1e2;horizontalStack=0;resizeParent=1;resizeParentMax=0;resizeLast=0;collapsible=1;marginBottom=0;html=1;fontColor=#ffffff;strokeColor=#006EAF;" parent="1" vertex="1">
          <mxGeometry x="370" y="390" width="220" height="52" as="geometry" />
        </mxCell>
        <mxCell id="79e4e_LaG82PzGOY9S52-7" value="prd_key" style="text;strokeColor=none;fillColor=none;align=left;verticalAlign=top;spacingLeft=4;spacingRight=4;overflow=hidden;rotatable=0;points=[[0,0.5],[1,0.5]];portConstraint=eastwest;whiteSpace=wrap;html=1;" parent="79e4e_LaG82PzGOY9S52-6" vertex="1">
          <mxGeometry y="26" width="220" height="26" as="geometry" />
        </mxCell>
        <mxCell id="79e4e_LaG82PzGOY9S52-8" value="Current &amp;amp; history product information" style="text;html=1;align=center;verticalAlign=middle;whiteSpace=wrap;rounded=0;" parent="1" vertex="1">
          <mxGeometry x="440" y="350" width="105" height="30" as="geometry" />
        </mxCell>
        <mxCell id="79e4e_LaG82PzGOY9S52-9" value="&lt;span style=&quot;font-size: 20px;&quot;&gt;crm_sales_details&lt;/span&gt;" style="swimlane;fontStyle=0;childLayout=stackLayout;horizontal=1;startSize=26;fillColor=#1ba1e2;horizontalStack=0;resizeParent=1;resizeParentMax=0;resizeLast=0;collapsible=1;marginBottom=0;html=1;fontColor=#ffffff;strokeColor=#006EAF;" parent="1" vertex="1">
          <mxGeometry x="20" y="270" width="220" height="78" as="geometry" />
        </mxCell>
        <mxCell id="79e4e_LaG82PzGOY9S52-12" value="cst_id" style="text;strokeColor=none;fillColor=none;align=left;verticalAlign=top;spacingLeft=4;spacingRight=4;overflow=hidden;rotatable=0;points=[[0,0.5],[1,0.5]];portConstraint=eastwest;whiteSpace=wrap;html=1;" parent="79e4e_LaG82PzGOY9S52-9" vertex="1">
          <mxGeometry y="26" width="220" height="26" as="geometry" />
        </mxCell>
        <mxCell id="79e4e_LaG82PzGOY9S52-10" value="prd_key" style="text;strokeColor=none;fillColor=none;align=left;verticalAlign=top;spacingLeft=4;spacingRight=4;overflow=hidden;rotatable=0;points=[[0,0.5],[1,0.5]];portConstraint=eastwest;whiteSpace=wrap;html=1;" parent="79e4e_LaG82PzGOY9S52-9" vertex="1">
          <mxGeometry y="52" width="220" height="26" as="geometry" />
        </mxCell>
        <mxCell id="79e4e_LaG82PzGOY9S52-11" value="Transactional record about sales &amp;amp; orders" style="text;html=1;align=center;verticalAlign=middle;whiteSpace=wrap;rounded=0;" parent="1" vertex="1">
          <mxGeometry x="50" y="240" width="130" height="30" as="geometry" />
        </mxCell>
        <mxCell id="79e4e_LaG82PzGOY9S52-14" style="edgeStyle=orthogonalEdgeStyle;rounded=0;orthogonalLoop=1;jettySize=auto;html=1;entryX=0;entryY=0.5;entryDx=0;entryDy=0;" parent="1" source="79e4e_LaG82PzGOY9S52-10" target="79e4e_LaG82PzGOY9S52-7" edge="1">
          <mxGeometry relative="1" as="geometry" />
        </mxCell>
        <mxCell id="79e4e_LaG82PzGOY9S52-15" style="edgeStyle=orthogonalEdgeStyle;rounded=0;orthogonalLoop=1;jettySize=auto;html=1;entryX=0;entryY=0.5;entryDx=0;entryDy=0;" parent="1" source="79e4e_LaG82PzGOY9S52-12" target="79e4e_LaG82PzGOY9S52-2" edge="1">
          <mxGeometry relative="1" as="geometry" />
        </mxCell>
        <mxCell id="79e4e_LaG82PzGOY9S52-17" value="&lt;span style=&quot;font-size: 20px;&quot;&gt;erp_cust_az12&lt;/span&gt;" style="swimlane;fontStyle=0;childLayout=stackLayout;horizontal=1;startSize=26;fillColor=#f0a30a;horizontalStack=0;resizeParent=1;resizeParentMax=0;resizeLast=0;collapsible=1;marginBottom=0;html=1;fontColor=#000000;strokeColor=#BD7000;" parent="1" vertex="1">
          <mxGeometry x="780" y="67" width="190" height="52" as="geometry" />
        </mxCell>
        <mxCell id="79e4e_LaG82PzGOY9S52-18" value="cid" style="text;strokeColor=none;fillColor=none;align=left;verticalAlign=top;spacingLeft=4;spacingRight=4;overflow=hidden;rotatable=0;points=[[0,0.5],[1,0.5]];portConstraint=eastwest;whiteSpace=wrap;html=1;" parent="79e4e_LaG82PzGOY9S52-17" vertex="1">
          <mxGeometry y="26" width="190" height="26" as="geometry" />
        </mxCell>
        <mxCell id="79e4e_LaG82PzGOY9S52-19" value="Extra customer information (birth date)" style="text;html=1;align=center;verticalAlign=middle;whiteSpace=wrap;rounded=0;fillColor=#f0a30a;fontColor=#000000;strokeColor=#BD7000;" parent="1" vertex="1">
          <mxGeometry x="795" y="30" width="145" height="30" as="geometry" />
        </mxCell>
        <mxCell id="79e4e_LaG82PzGOY9S52-22" value="Integration Model" style="text;html=1;align=center;verticalAlign=middle;whiteSpace=wrap;rounded=0;fontSize=24;" parent="1" vertex="1">
          <mxGeometry x="407.5" y="-60" width="280" height="30" as="geometry" />
        </mxCell>
        <mxCell id="79e4e_LaG82PzGOY9S52-24" value="&lt;span style=&quot;font-size: 20px;&quot;&gt;erp_loc_a101&lt;/span&gt;" style="swimlane;fontStyle=0;childLayout=stackLayout;horizontal=1;startSize=26;fillColor=#f0a30a;horizontalStack=0;resizeParent=1;resizeParentMax=0;resizeLast=0;collapsible=1;marginBottom=0;html=1;fontColor=#000000;strokeColor=#BD7000;" parent="1" vertex="1">
          <mxGeometry x="780" y="218" width="190" height="52" as="geometry" />
        </mxCell>
        <mxCell id="79e4e_LaG82PzGOY9S52-25" value="cid" style="text;strokeColor=none;fillColor=none;align=left;verticalAlign=top;spacingLeft=4;spacingRight=4;overflow=hidden;rotatable=0;points=[[0,0.5],[1,0.5]];portConstraint=eastwest;whiteSpace=wrap;html=1;" parent="79e4e_LaG82PzGOY9S52-24" vertex="1">
          <mxGeometry y="26" width="190" height="26" as="geometry" />
        </mxCell>
        <mxCell id="79e4e_LaG82PzGOY9S52-26" value="Extra customer information (Location)" style="text;html=1;align=center;verticalAlign=middle;whiteSpace=wrap;rounded=0;fillColor=#f0a30a;fontColor=#000000;strokeColor=#BD7000;" parent="1" vertex="1">
          <mxGeometry x="795" y="180" width="145" height="30" as="geometry" />
        </mxCell>
        <mxCell id="79e4e_LaG82PzGOY9S52-28" value="&lt;span style=&quot;font-size: 20px;&quot;&gt;&lt;font style=&quot;color: rgb(255, 255, 255);&quot;&gt;erp_px_cat_g1v2&lt;/font&gt;&lt;br&gt;&lt;/span&gt;" style="swimlane;fontStyle=0;childLayout=stackLayout;horizontal=1;startSize=26;fillColor=none;horizontalStack=0;resizeParent=1;resizeParentMax=0;resizeLast=0;collapsible=1;marginBottom=0;html=1;fontColor=#000000;strokeColor=#BD7000;" parent="1" vertex="1">
          <mxGeometry x="782.5" y="380" width="190" height="52" as="geometry" />
        </mxCell>
        <mxCell id="79e4e_LaG82PzGOY9S52-29" value="id" style="text;strokeColor=none;fillColor=none;align=left;verticalAlign=top;spacingLeft=4;spacingRight=4;overflow=hidden;rotatable=0;points=[[0,0.5],[1,0.5]];portConstraint=eastwest;whiteSpace=wrap;html=1;" parent="79e4e_LaG82PzGOY9S52-28" vertex="1">
          <mxGeometry y="26" width="190" height="26" as="geometry" />
        </mxCell>
        <mxCell id="79e4e_LaG82PzGOY9S52-30" value="&lt;font style=&quot;color: rgb(0, 0, 0);&quot;&gt;Poduct categories&lt;/font&gt;" style="text;html=1;align=center;verticalAlign=middle;whiteSpace=wrap;rounded=0;fillColor=#f0a30a;fontColor=#000000;strokeColor=#BD7000;" parent="1" vertex="1">
          <mxGeometry x="801.25" y="340" width="145" height="30" as="geometry" />
        </mxCell>
        <mxCell id="79e4e_LaG82PzGOY9S52-32" value="" style="rounded=0;whiteSpace=wrap;html=1;fillColor=none;strokeColor=#0e8088;" parent="1" vertex="1">
          <mxGeometry x="20" y="60" width="580" height="428" as="geometry" />
        </mxCell>
        <mxCell id="79e4e_LaG82PzGOY9S52-33" value="CRM" style="text;html=1;align=center;verticalAlign=middle;whiteSpace=wrap;rounded=0;fontSize=20;" parent="1" vertex="1">
          <mxGeometry x="300" y="30" width="60" height="30" as="geometry" />
        </mxCell>
        <mxCell id="79e4e_LaG82PzGOY9S52-34" value="" style="rounded=1;whiteSpace=wrap;html=1;fillColor=none;" parent="1" vertex="1">
          <mxGeometry x="742.5" y="-40" width="250" height="540" as="geometry" />
        </mxCell>
        <mxCell id="79e4e_LaG82PzGOY9S52-35" value="ERP" style="text;html=1;align=center;verticalAlign=middle;whiteSpace=wrap;rounded=0;" parent="1" vertex="1">
          <mxGeometry x="843.75" y="-40" width="60" height="30" as="geometry" />
        </mxCell>
        <mxCell id="gHUOymTyM--9fwB_9LQh-1" value="PRODUCT" style="text;html=1;align=center;verticalAlign=middle;whiteSpace=wrap;rounded=0;fillColor=#76608a;fontColor=#ffffff;strokeColor=#432D57;" vertex="1" parent="1">
          <mxGeometry x="370" y="442" width="220" height="28" as="geometry" />
        </mxCell>
        <mxCell id="gHUOymTyM--9fwB_9LQh-2" value="PRODUCT" style="text;html=1;align=center;verticalAlign=middle;whiteSpace=wrap;rounded=0;fillColor=#76608a;fontColor=#ffffff;strokeColor=#432D57;" vertex="1" parent="1">
          <mxGeometry x="782.5" y="432" width="192.5" height="18" as="geometry" />
        </mxCell>
        <mxCell id="gHUOymTyM--9fwB_9LQh-3" value="Customer" style="text;html=1;align=center;verticalAlign=middle;whiteSpace=wrap;rounded=0;fillColor=#C171FF;" vertex="1" parent="1">
          <mxGeometry x="360" y="227" width="220" height="30" as="geometry" />
        </mxCell>
        <mxCell id="gHUOymTyM--9fwB_9LQh-4" value="Customer" style="text;html=1;align=center;verticalAlign=middle;whiteSpace=wrap;rounded=0;fillColor=#C171FF;" vertex="1" parent="1">
          <mxGeometry x="777.5" y="119" width="192.5" height="30" as="geometry" />
        </mxCell>
        <mxCell id="gHUOymTyM--9fwB_9LQh-5" value="Customer" style="text;html=1;align=center;verticalAlign=middle;whiteSpace=wrap;rounded=0;fillColor=#C171FF;" vertex="1" parent="1">
          <mxGeometry x="780" y="270" width="192.5" height="30" as="geometry" />
        </mxCell>
        <mxCell id="gHUOymTyM--9fwB_9LQh-7" value="Sales" style="text;html=1;align=center;verticalAlign=middle;whiteSpace=wrap;rounded=0;fillColor=#98FFAC;" vertex="1" parent="1">
          <mxGeometry x="20" y="348" width="220" height="22" as="geometry" />
        </mxCell>
        <mxCell id="gHUOymTyM--9fwB_9LQh-10" style="edgeStyle=orthogonalEdgeStyle;rounded=0;orthogonalLoop=1;jettySize=auto;html=1;entryX=1.002;entryY=0.86;entryDx=0;entryDy=0;entryPerimeter=0;" edge="1" parent="1" source="gHUOymTyM--9fwB_9LQh-2" target="79e4e_LaG82PzGOY9S52-32">
          <mxGeometry relative="1" as="geometry" />
        </mxCell>
        <mxCell id="gHUOymTyM--9fwB_9LQh-16" style="edgeStyle=orthogonalEdgeStyle;rounded=0;orthogonalLoop=1;jettySize=auto;html=1;entryX=0.999;entryY=0.366;entryDx=0;entryDy=0;entryPerimeter=0;" edge="1" parent="1" source="79e4e_LaG82PzGOY9S52-18" target="79e4e_LaG82PzGOY9S52-32">
          <mxGeometry relative="1" as="geometry" />
        </mxCell>
        <mxCell id="gHUOymTyM--9fwB_9LQh-18" style="edgeStyle=orthogonalEdgeStyle;rounded=0;orthogonalLoop=1;jettySize=auto;html=1;entryX=1.006;entryY=0.366;entryDx=0;entryDy=0;entryPerimeter=0;" edge="1" parent="1" source="79e4e_LaG82PzGOY9S52-25" target="79e4e_LaG82PzGOY9S52-32">
          <mxGeometry relative="1" as="geometry" />
        </mxCell>
      </root>
    </mxGraphModel>
  </diagram>
</mxfile>
